<?xml version="1.0" encoding="utf-8"?>
<!-- Generator: Adobe Illustrator 18.1.1, SVG Export Plug-In . SVG Version: 6.00 Build 0)  -->
<svg version="1.1" id="Layer_1" xmlns="http://www.w3.org/2000/svg" xmlns:xlink="http://www.w3.org/1999/xlink" x="0px" y="0px"
	 viewBox="0 0 16 16" enable-background="new 0 0 16 16" xml:space="preserve">
<g>
	<path fill="#00CFFF" d="M4.3,8c0-0.9,0-1.9,0-2.8c0.5,0,1.1,0,1.7,0c0-0.2,0-0.4,0-0.6c0-0.7,0-1.3,0.1-2c0.2-1.2,0.7-2.2,2-2.5
		c1.2-0.3,2.5-0.1,3.7-0.2c0,0.9,0,1.8,0,2.8c-0.6,0-1.2,0-1.8,0C9.6,2.8,9.3,3,9.3,3.3c0,0.6,0,1.3,0,2c0.8,0,1.6,0,2.4,0
		c-0.1,0.9-0.2,1.8-0.3,2.8c-0.8,0-1.5,0-2.2,0c0,2.7,0,5.3,0,8c-1.1,0-2.2,0-3.3,0c0-2.7,0-5.3,0-8C5.3,8,4.8,8,4.3,8z"/>
</g>
</svg>
