<?xml version="1.0" encoding="utf-8"?>
<!-- Generator: Adobe Illustrator 18.1.1, SVG Export Plug-In . SVG Version: 6.00 Build 0)  -->
<svg version="1.1" id="Layer_1" xmlns="http://www.w3.org/2000/svg" xmlns:xlink="http://www.w3.org/1999/xlink" x="0px" y="0px"
	 viewBox="0 0 48 48" enable-background="new 0 0 48 48" xml:space="preserve">
<path fill="#00CFFF" d="M46.6,5.4c-0.7,2-2,3.7-4,5c0,0.1,0.1,0.2,0.1,0.2c1.7-0.5,3.4-0.9,5.2-1.4c-0.6,0.7-1.1,1.5-1.7,2.1
	c-0.7,0.8-1.5,1.5-2.3,2.1c-0.7,0.5-0.8,1-0.8,1.8c-0.2,10-4.4,18-12.6,23.8c-3.5,2.5-7.5,3.8-11.8,4.3C12.5,44.1,6.5,43,1,39.9
	c-0.3-0.2-0.7-0.4-1-0.7c5.3,0.5,10-0.9,14.5-4.1c-4.6-0.4-7.6-2.7-9.4-6.9c1.6,0,3,0,4.4,0c0-0.1,0-0.2,0-0.2
	c-3-0.7-5.2-2.4-6.7-5.1c-0.8-1.4-1.2-2.9-1.2-4.5c1.4,0.4,2.8,0.8,4.2,1.1c0-0.1,0.1-0.1,0.1-0.2c-4.3-3.6-5.3-8-2.9-13.2
	c5.4,6.3,12.1,9.8,20.4,10.4c0-0.9-0.1-1.7-0.1-2.5c0-4.9,4.1-9.2,9-9.6c3-0.2,5.6,0.7,7.9,2.7c0.2,0.2,0.7,0.3,0.9,0.2
	C42.9,6.7,44.8,6,46.6,5.4z"/>
</svg>
